/* XPM */
static char *b2_data [] = {
/* columns rows colors chars-per-pixel */
"38 38 129 2 ",
"   c None",
".  c #121F2E",
"X  c #13202F",
"o  c #152333",
"O  c #17273A",
"+  c #18273A",
"@  c #192A3D",
"#  c #1C2E43",
"$  c #1D3047",
"%  c #1E3249",
"&  c #20354D",
"*  c #213751",
"=  c #233A54",
"-  c #253D5A",
";  c #283F5E",
":  c #27415F",
">  c #29415E",
",  c #2C4563",
"<  c #2F4967",
"1  c #2B4768",
"2  c #2D496B",
"3  c #314967",
"4  c #334C6B",
"5  c #37506E",
"6  c #2F4E72",
"7  c #304E71",
"8  c #335175",
"9  c #3A5574",
"0  c #3D5876",
"q  c #35557C",
"w  c #39567A",
"e  c #37587F",
"r  c #3D597C",
"t  c #415D7E",
"y  c #355780",
"u  c #375982",
"i  c #3A5C85",
"p  c #3A5E8A",
"a  c #3B618E",
"s  c #3E6494",
"d  c #3F6798",
"f  c #3F6899",
"g  c #415F82",
"h  c #456284",
"j  c #486485",
"k  c #44658B",
"l  c #496689",
"z  c #4C6A8C",
"x  c #426793",
"c  c #456995",
"v  c #4C6B91",
"b  c #406798",
"n  c #416A9C",
"m  c #4B6E9A",
"M  c #516E90",
"N  c #4C719D",
"B  c #557194",
"V  c #53759D",
"C  c #597699",
"Z  c #5C7A9D",
"A  c #436EA1",
"S  c #4571A5",
"D  c #4C74A6",
"F  c #4773A9",
"G  c #4976AD",
"H  c #4C79AE",
"J  c #5177A4",
"K  c #5679A4",
"L  c #5A7CA6",
"P  c #537BAC",
"I  c #5A7EAA",
"U  c #4B7BB4",
"Y  c #4D7FB9",
"T  c #527EB3",
"R  c #5D81AC",
"E  c #4F80BC",
"W  c #5480B6",
"Q  c #5B83B3",
"!  c #5082BE",
"~  c #6481A3",
"^  c #6484AA",
"/  c #6987AA",
"(  c #6487B1",
")  c #6B8EB7",
"_  c #718FB4",
"`  c #6F93BF",
"'  c #7293B9",
"]  c #5285C3",
"[  c #5588C6",
"{  c #588AC7",
"}  c #558BCB",
"|  c #598DCC",
" . c #5E91CF",
".. c #578ED0",
"X. c #588FD1",
"o. c #5B92D3",
"O. c #5B95D9",
"+. c #5F98DD",
"@. c #779BC5",
"#. c #799AC1",
"$. c #7D9FC8",
"%. c #6195D4",
"&. c #6198D7",
"*. c #6097D9",
"=. c #649BDC",
"-. c #699EDE",
";. c #7EA2CE",
":. c #659EE3",
">. c #699FE1",
",. c #6BA1E2",
"<. c #6EA6E9",
"1. c #70A6E6",
"2. c #74AAEC",
"3. c #78AEEF",
"4. c #79AFF0",
"5. c #7CB3F4",
"6. c #7EB6F9",
"7. c #82A7D3",
"8. c #80B7F9",
"9. c #85BBFB",
"0. c #88BFFD",
"q. c #8BC2FE",
"w. c #91C7FF",
"e. c #94CAFF",
"r. c #99CFFF",
"t. c #9DD3FF",
"y. c #A4DBFF",
"u. c #A9DFFF",
"i. c #AAE1FF",
/* pixels */
"                                                                            ",
"                          ! ] ] ] E ] Y U U G A A                           ",
"                      ] ] [ } } } } ] ] ] Y U G F A s                       ",
"                  ] ] } } ..........} [ ] ] Y U G A f s i                   ",
"                ] ] } ..X.X.O.X.X.X...} } ] E Y U G A d p y                 ",
"              E ] } ....O.O.O.O.O.O.o...} ] ] Y U G A A s u 8               ",
"            Y ] } ..X.O.O.O.+.:.:.=.O.o...{ ] Y U G F f s p y 6             ",
"          U ] [ } ..O.+.+.:.<.<.<.<.,.-.O.| [ ! Y G F f d p y 6 ,           ",
"        G Y ] } } ..O.+.,.<.5.6.8.8.3.1.=. .| ] U G F f d p u 6 1 *         ",
"      S U Y ] ] } ..O.,.2.5.q.q.w.e.9.3.1.=. .Q Y U F A f s u 8 1 - %       ",
"      S U Y ] ] } o.=.<.5.0.e.t.y.r.w.8.3.-.%.! Y U G A f s p q 2 : $       ",
"    n F U Y E ] } o.=.2.9.w.y.y.u.y.t.q.8.,.%.{ E U G S n d p y 6 , % O     ",
"    b S U U E ] { o.-.1.0.e.y.i.u.y.r.9.5.,.%.{ ] U G F A d p y 8 1 * #     ",
"  s b S G U Y E [  .-.2.9.e.t.y.y.y.e.9.3.-.%.{ ] Y G F A d a u 8 1 - #     ",
"  a b A F U U E ]  .&.1.5.q.e.r.r.e.0.8.1.=...} E U G F A f s u q 1 - # o   ",
"  i s n S F U Y ] | %.,.2.5.0.q.9.8.8.1.-.O.} ] E U G F A f a u 8 2 - # o   ",
"  i a f f F U Y ! | o.&.>.1.3.5.3.3.1.-.O. .[ ! Y U G S n d a y 8 1 - % X   ",
"  y p s n F G U ! ] { o.&.-.-.,.-.-.=. . .[ ] E U H G S n d a y 6 1 - $ o   ",
"  e i a n F G U U ] [ { | O.O.%.&. . .{ { ] E E U G F S f s p y 6 1 = # .   ",
"  8 y a f n F G U Y ! [ { { | } | { { { ] E E U U G S f d s y q 6 , * # .   ",
"  9 e p s f S G U U Y ! ] ] ] [ ] ] ! ! ! E U U H F S f s p y q 2 , % # .   ",
"  w e u s d A F G U U Y E E ! ! ! ! E E E W W H G S n d a p y 6 1 - % O o   ",
"  t 8 u p s f A F G U U U Y Y Y E E E E E W U H F S f d p y 6 6 , * $ o o   ",
"  g w w i a d n A S F G G U U U W E U W W U H H G m f s p q 6 1 - & # @ o   ",
"    g r u u s x f A A F G G G U U T Y T W T T P D N c a u 8 2 , = % # @     ",
"    l g w u p p s d n A A F F G P U T Q Q Q Q P J m x a w 4 , - & $ # @     ",
"    M l i e y u p s s d f A S F H P Q Q Q Q Q P J m k r 8 1 - * % # # #     ",
"      B j r w u i p p s d f n N F J P Q Q Q R L V v i w 2 , - % & & &       ",
"      Z B j r w w e u p a a b b N J K L R L L V m h r 5 , - * * & & &       ",
"        Z C l r w 8 8 e r i a k c m N V K K V z h 0 5 > - = = * = *         ",
"          ~ C z r 8 8 8 8 w e u i k k v z z l t 0 4 > > > = = * =           ",
"            / Z z t 9 4 2 6 4 8 w r r r t 0 9 5 3 , > - - = - >             ",
"              _ ~ B j t 4 3 3 3 3 4 4 4 4 3 3 , , > ; ; > > >               ",
"                #._ Z B t t 4 3 , , , 3 3 , , , , , , , , 3                 ",
"                  7.$.' / Z z t 0 9 9 4 3 4 4 4 4 4 4 9 w                   ",
"                      7.7.' _ / K B z l j h h h h l l                       ",
"                            7.;.@.@.( ( R R L K                             ",
"                                                                            "
};
