/* XPM */
static char *r2_data [] = {
/* columns rows colors chars-per-pixel */
"38 38 177 2 ",
"   c None",
".  c #3A070C",
"X  c #3C070C",
"o  c #3D070C",
"O  c #3F080D",
"+  c #43080D",
"@  c #46080E",
"#  c #48090E",
"$  c #4A090F",
"%  c #4D090F",
"&  c #510A10",
"*  c #530A10",
"=  c #540A11",
"-  c #560A11",
";  c #580B12",
":  c #5A0B12",
">  c #5B0B12",
",  c #5D0B13",
"<  c #5F0B13",
"1  c #610C13",
"2  c #630C14",
"3  c #640C14",
"4  c #660C14",
"5  c #680D15",
"6  c #6A0D15",
"7  c #6B0D15",
"8  c #6D0D16",
"9  c #6F0D16",
"0  c #710E17",
"q  c #730E17",
"w  c #740E17",
"e  c #760E18",
"r  c #780E18",
"t  c #7A0F18",
"y  c #7B0F19",
"u  c #7D0F19",
"i  c #7F0F19",
"p  c #81101A",
"a  c #82101A",
"s  c #84101A",
"d  c #86101B",
"f  c #88101B",
"g  c #8A111B",
"h  c #8B111C",
"j  c #8D111C",
"k  c #8F111D",
"l  c #91111D",
"z  c #92121D",
"x  c #94121E",
"c  c #96121E",
"v  c #98121E",
"b  c #9A131F",
"n  c #9B131F",
"m  c #9D131F",
"M  c #9F1320",
"N  c #A11320",
"B  c #A21420",
"V  c #A41421",
"C  c #A61421",
"Z  c #A81421",
"A  c #AA1422",
"S  c #AB1522",
"D  c #AD1523",
"F  c #AF1523",
"G  c #B11523",
"H  c #B21524",
"J  c #B41624",
"K  c #B61624",
"L  c #B81625",
"P  c #B91625",
"I  c #BB1725",
"U  c #BD1726",
"Y  c #BF1726",
"T  c #C11726",
"R  c #C21727",
"E  c #C41827",
"W  c #C61828",
"Q  c #C81828",
"!  c #C91828",
"~  c #CB1829",
"^  c #CD1929",
"/  c #CF1929",
"(  c #D1192A",
")  c #D2192A",
"_  c #D41A2A",
"`  c #D61A2B",
"'  c #D81A2B",
"]  c #D91A2B",
"[  c #DB1A2C",
"{  c #DD1B2C",
"}  c #DF1B2C",
"|  c #E11B2D",
" . c #E21B2D",
".. c #E41C2E",
"X. c #E41E30",
"o. c #E41F31",
"O. c #E42133",
"+. c #E42334",
"@. c #E52536",
"#. c #E52738",
"$. c #E52839",
"%. c #E52A3B",
"&. c #E62C3D",
"*. c #E62E3E",
"=. c #E62F40",
"-. c #E63141",
";. c #E63343",
":. c #E73545",
">. c #E73746",
",. c #E73848",
"<. c #E73A4A",
"1. c #E73C4B",
"2. c #E83E4D",
"3. c #E83F4F",
"4. c #E84150",
"5. c #E84352",
"6. c #E94553",
"7. c #E94655",
"8. c #E94857",
"9. c #E94A58",
"0. c #E94C5A",
"q. c #EA4E5C",
"w. c #EA4F5D",
"e. c #EA515F",
"r. c #EA5361",
"t. c #EA5562",
"y. c #EB5664",
"u. c #EB5865",
"i. c #EB5A67",
"p. c #EB5C69",
"a. c #EC5E6A",
"s. c #EC5F6C",
"d. c #EC616E",
"f. c #EC6571",
"g. c #ED6672",
"h. c #ED6874",
"j. c #ED6A76",
"k. c #ED6C77",
"l. c #ED6E79",
"z. c #EE6F7B",
"x. c #EE717C",
"c. c #EE737E",
"v. c #EE7580",
"b. c #EF7681",
"n. c #EF7883",
"m. c #EF7A84",
"M. c #EF7C86",
"N. c #EF7D88",
"B. c #F07F89",
"V. c #F0818B",
"C. c #F0838D",
"Z. c #F0858E",
"A. c #F08690",
"S. c #F18A93",
"D. c #F18C95",
"F. c #F18D96",
"G. c #F28F98",
"H. c #F2919A",
"J. c #F2939B",
"K. c #F2959D",
"L. c #F2969F",
"P. c #F39AA2",
"I. c #F39DA5",
"U. c #F39FA7",
"Y. c #F4A1A8",
"T. c #F4A3AA",
"R. c #F4A5AC",
"E. c #F4A6AD",
"W. c #F5A8AF",
"Q. c #F5ACB2",
"!. c #F5ADB4",
"~. c #F6B1B7",
"^. c #F6B3B9",
"/. c #F6B4BA",
"(. c #F6B6BC",
"). c #F7BABF",
"_. c #F7BCC1",
/* pixels */
"                                                                            ",
"                          #.$.#.&.#.#.+.X. .] / W                           ",
"                      &.=.>.>.;.>.>.-.*.$.+. .] ( W P                       ",
"                  #.=.>.,.1.1.3.1.,.,.-.=.#.+. .] / E J C                   ",
"                #.=.>.,.3.4.6.4.4.4.1.,.;.=.#.X.{ _ ~ E G N                 ",
"              @.=.>.3.3.5.6.8.8.0.6.4.3.>.-.&.+...' / E P C c               ",
"            O.*.>.3.4.5.0.q.t.y.r.r.q.6.3.,.*.+...' ( E P D m h             ",
"           .$.-.,.3.4.0.r.p.g.h.h.h.f.r.6.1.-.@...{ ( ~ U G N l i           ",
"        ] O.&.-.,.3.8.e.p.l.M.Z.A.V.b.g.y.4.>.@...' ( ! Y H N c a 7         ",
"      ( } +.&.-.,.4.q.p.l.C.J.P.I.P.F.m.g.r.1.&.X.{ _ ! Y H C c a q ;       ",
"      (  .O.$.-.,.6.e.h.B.J.Y.Q.!.W.I.D.x.i.4.-.+. .] / E P S M h e ;       ",
"    E ( { O.$.-.>.4.y.l.S.U.!.(._.^.E.P.M.d.0.>.#...] ( W P D M j i 4 #     ",
"    T ( { X.@.$.>.4.t.x.F.Y.~._._.^.E.K.M.d.0.>.$.X.{ ( ~ P G C c a 7 %     ",
"  P T / ]  .O.$.-.4.t.x.S.U.!.^.^.!.Y.G.b.a.0.>.$.X.{ _ E E H C c d 9 *     ",
"  G Y ~ _ {  .O.=.3.r.h.B.K.U.E.E.Y.J.N.g.r.6.-.#...} _ ~ E H C v d w ; X   ",
"  S P E / ]  .O.*.,.8.p.x.V.G.J.J.F.N.l.y.0.1.=.+...' ( Q U H C v d w ; X   ",
"  S J Y ~ _ | X.&.>.4.e.a.l.b.n.b.x.g.y.8.3.-.$.+. .] ( Q Y H V c d q ; +   ",
"  N S P W ( ] ..@.-.<.4.0.y.i.s.a.i.q.0.3.;.*.@...{ ] ( Q P H N c a q ; X   ",
"  M S J E / '  .X.#.-.,.1.6.0.8.8.6.4.,.>.*.$.X. .{ _ ! T P D M l a 9 - X   ",
"  v B G Y ~ _ } | O.#.=.>.,.1.,.<.,.>.-.&.#.+... ._ ( ! Y J S M h i 7 - .   ",
"  v B D Y W ( ' } X.+.#.$.*.-.-.=.=.=.&.@.O.X. .] _ / E P H C c h e 4 % X   ",
"  N M S J T Q ( ] } ..X.@.@.@.$.$.#.#.#.O.X...{ ] ( W U H S M l a q , # X   ",
"  C m B D P Q ! _ ] {  . ...O.O.O.+.+.O.O.O. . .] / E I D C v g y 7 ; # +   ",
"  G B M V H P Q ~ ( ` ] } }  ...X.X.O.O.+.O...{ ] / E P S m l a q 1 - % +   ",
"    D B B S H P E Q ( _ ' ' } |  .X.O.O.@.+.X. .] / E G C v g t 7 ; - %     ",
"    Y S N B S H P E E Q / ( _ ' { X.O.@.$.#.+...] ~ U D m l i 9 4 ; * *     ",
"    ~ Y S M B S D J P E E Q / ( ] ..X.$.&.$.@.X.] ~ P S c d q 4 1 , ; -     ",
"      / J C N N C D H J Y T Q / ] { X.@.$.$.+. .( W D m g y 7 2 1 , ,       ",
"      ] ( P V N M M C S G J P Q / ` { X.+.+...' ~ J B l i q 4 4 4 1 1       ",
"         .( Y V M v b M N S G P T ! ( ] ] ] ) W J C l u q 9 7 4 4 4         ",
"          +.' Y C v c c c M N Z H J Y T R U I D M j u e q 7 7 7 9           ",
"            *.} R C M j l j j c M N V V S B M l f a t q q 0 q q             ",
"              3.+.( J N l g d f f h j j j h f a u u t y y e y               ",
"                0.3.X.! H N l f a a a a a a a a u u i i a d                 ",
"                  d.y.6.$.' T G B v c j j j h j j j l M M                   ",
"                      h.s.e.,.#.{ / E Y J H H H J P J                       ",
"                            g.i.e.6.,.*.#.+.| }                             ",
"                                                                            "
};
